<?xml version="1.0" standalone="no"?>
<!DOCTYPE svg PUBLIC "-//W3C//DTD SVG 20010904//EN"
 "http://www.w3.org/TR/2001/REC-SVG-20010904/DTD/svg10.dtd">
<svg version="1.0" xmlns="http://www.w3.org/2000/svg"
 width="750.000000pt" height="900.000000pt" viewBox="0 0 750.000000 900.000000"
 preserveAspectRatio="xMidYMid meet">
<metadata>
Created by potrace 1.16, written by Peter Selinger 2001-2019
</metadata>
<g transform="translate(0.000000,900.000000) scale(0.100000,-0.100000)"
fill="#000000" stroke="none">
<path d="M3195 8925 c-271 -49 -584 -204 -850 -420 -378 -306 -731 -866 -932
-1477 l-58 -177 -212 -1 -211 0 -6 -92 c-5 -84 -56 -1585 -56 -1650 l0 -28
195 0 c163 0 195 -2 195 -14 0 -8 -7 -48 -15 -88 -23 -109 -44 -334 -55 -606
-5 -134 -12 -248 -16 -253 -3 -6 -9 -79 -13 -162 -5 -84 -12 -161 -16 -172
l-8 -20 23 20 c32 28 54 82 89 222 41 163 121 525 122 554 0 13 16 -50 34
-141 33 -164 63 -293 90 -380 7 -25 16 -66 19 -92 l5 -46 -52 -7 c-152 -21
-334 -132 -420 -256 -40 -58 -107 -226 -138 -348 -16 -61 -22 -130 -29 -351
-12 -363 -42 -546 -151 -919 -118 -405 -131 -470 -109 -577 14 -69 55 -160
102 -225 18 -26 90 -106 160 -179 71 -72 128 -137 128 -143 0 -6 23 -79 50
-163 28 -84 50 -160 50 -169 0 -43 30 -74 87 -91 32 -9 71 -18 87 -19 29 -2
31 -6 69 -120 36 -106 69 -166 84 -151 9 9 -82 273 -121 354 -20 40 -36 81
-36 92 0 46 160 184 282 243 86 42 191 67 283 67 l63 0 -15 -52 c-8 -29 -33
-114 -55 -188 -28 -90 -45 -172 -52 -246 -12 -110 -11 -112 11 -132 l22 -19 5
51 c3 28 8 81 11 118 3 37 24 131 46 210 65 230 87 332 114 518 46 331 58 476
76 950 5 146 12 297 14 335 3 39 12 171 20 295 33 487 56 568 188 654 29 19
97 66 152 105 209 147 461 284 670 363 319 121 411 117 544 -21 59 -62 196
-252 222 -311 l16 -35 -45 -1 c-44 -1 -44 -1 -18 13 15 8 31 11 36 8 6 -3 7 1
4 9 -3 9 -8 16 -10 16 -5 0 -65 -41 -74 -50 -26 -26 -61 -30 -147 -15 -18 3
-36 5 -40 5 -3 -1 -10 5 -15 14 -5 9 -17 16 -26 16 -13 0 -14 -2 -4 -8 7 -5
10 -16 7 -24 -4 -9 -1 -19 4 -23 6 -3 8 -12 4 -18 -4 -7 0 -7 10 1 9 8 26 11
39 8 20 -5 21 -5 3 3 -11 5 -29 12 -39 15 -10 4 -17 9 -14 12 3 2 23 -1 45 -9
22 -7 57 -12 77 -11 l37 3 -22 -18 c-27 -21 -34 -61 -10 -54 9 2 6 -3 -6 -13
-13 -9 -23 -20 -23 -25 0 -5 11 1 25 13 17 15 22 25 15 32 -16 16 -12 23 24
40 21 10 45 14 65 10 19 -4 31 -2 31 4 0 5 -10 8 -22 6 -21 -4 -22 -4 -3 5 11
5 37 10 58 10 l37 1 0 -49 c0 -67 -22 -177 -65 -323 -39 -134 -65 -172 -113
-166 -23 3 -27 9 -38 68 -29 157 -120 454 -168 547 -13 26 -41 64 -62 83 l-38
35 27 -35 c46 -60 54 -81 112 -291 76 -282 98 -389 93 -457 -4 -50 -9 -60 -43
-89 -21 -18 -54 -37 -74 -43 -42 -12 -101 -13 -117 -2 -6 4 -16 36 -23 72 -22
117 -33 164 -48 208 -12 36 -12 46 -1 59 21 26 90 52 174 65 l79 12 -45 7
c-25 4 -52 5 -60 3 -9 -2 -48 -6 -88 -8 -55 -3 -77 0 -87 11 -8 8 -15 10 -15
4 0 -5 5 -13 10 -16 6 -3 10 -18 11 -33 l1 -27 7 25 c6 23 8 23 14 6 5 -12 2
-25 -6 -34 -13 -12 -17 -7 -31 39 -33 108 -60 188 -63 185 -1 -1 7 -46 18
-100 l21 -97 -23 -25 c-12 -13 -45 -37 -73 -53 -60 -34 -90 -65 -103 -106 -7
-21 -16 -29 -29 -27 -16 2 -17 1 -4 -7 12 -9 12 -11 1 -11 -9 0 -6 -7 9 -20
13 -11 20 -20 16 -20 -10 0 40 -94 58 -109 11 -9 16 -10 16 -2 0 6 -4 11 -10
11 -5 0 -16 13 -25 30 -17 34 -19 44 -5 35 6 -3 10 -1 10 5 0 7 -7 10 -15 6
-16 -6 -16 -4 -19 47 -2 36 29 91 46 81 6 -4 8 -3 5 3 -6 10 22 41 52 58 10 6
12 4 6 -6 -4 -8 2 -4 14 8 12 13 33 26 46 29 14 3 25 13 25 20 0 12 -4 13 -22
3 l-23 -12 20 21 c11 11 23 17 27 13 8 -8 41 -138 63 -254 13 -68 15 -94 6
-113 -16 -35 -69 -64 -118 -64 -52 0 -88 29 -128 102 -16 29 -43 74 -60 99
-18 26 -58 101 -90 168 -32 66 -60 120 -61 118 -2 -1 10 -42 27 -91 16 -49 27
-91 24 -94 -3 -3 -5 0 -5 7 0 6 -20 -11 -45 -39 -62 -69 -57 -90 7 -28 l51 50
13 -32 c8 -17 22 -43 33 -58 10 -15 35 -58 55 -97 39 -75 38 -78 -19 -97 -60
-19 -167 4 -150 33 3 5 0 6 -8 4 -8 -4 -24 10 -40 32 -24 33 -25 39 -12 53 8
9 15 20 15 25 0 5 -6 1 -13 -10 -16 -21 -32 -14 -51 24 -13 24 -13 28 0 28 8
0 14 -4 14 -8 0 -4 7 -9 14 -12 10 -4 13 -1 9 9 -3 7 0 14 6 14 6 0 11 -7 11
-15 0 -8 4 -15 9 -15 15 0 19 -35 4 -48 -7 -7 -13 -18 -13 -25 0 -7 5 -4 11 5
5 10 17 15 27 12 13 -5 14 -4 3 4 -9 7 -10 12 -2 16 6 4 11 13 11 19 0 7 -4 6
-10 -3 -8 -13 -10 -12 -10 3 0 9 5 17 10 17 6 0 10 5 10 11 0 8 -4 8 -14 0
-11 -10 -16 -8 -21 8 -5 17 -15 21 -53 21 l-47 0 -54 105 c-30 57 -57 103 -59
100 -2 -2 3 -25 12 -51 20 -59 20 -57 -4 -42 -11 7 -18 19 -15 29 3 8 -6 26
-20 39 -20 19 -25 20 -25 7 0 -8 9 -19 20 -22 11 -3 20 -11 20 -16 0 -13 -14
-11 -29 4 -11 10 -11 8 -1 -13 7 -14 19 -29 26 -33 8 -4 14 -15 14 -23 0 -8 3
-13 8 -10 10 6 37 -15 51 -41 12 -23 11 -23 -47 -23 -34 0 -73 -7 -92 -16 -75
-38 -198 1 -292 92 -27 25 -48 41 -48 36 0 -16 12 -42 19 -42 3 0 33 -25 65
-55 33 -30 63 -52 69 -48 6 3 7 1 3 -6 -10 -16 -58 13 -103 62 -19 22 -36 37
-38 35 -3 -2 11 -27 30 -55 40 -60 103 -107 183 -136 75 -27 230 -35 289 -14
29 10 45 11 52 4 17 -17 13 -31 -4 -17 -13 10 -18 11 -28 1 -9 -10 -8 -11 4
-6 10 4 20 1 24 -4 3 -6 10 -9 14 -7 4 3 26 -14 49 -37 40 -41 41 -44 51 -140
6 -54 13 -245 16 -425 3 -180 10 -370 16 -422 15 -137 74 -480 114 -660 63
-285 67 -321 72 -650 3 -217 1 -301 -7 -290 -9 13 -12 13 -24 -2 -7 -10 -22
-18 -32 -17 -18 0 -18 1 1 9 11 5 14 9 8 9 -7 1 -13 6 -13 12 0 5 5 7 12 3 7
-4 8 -3 4 5 -11 16 -38 -6 -34 -28 1 -9 -1 -22 -6 -29 -6 -11 -12 -10 -26 3
-23 20 -47 11 -29 -11 17 -20 1 -17 -27 5 -17 13 -21 21 -12 25 7 3 4 4 -8 1
-26 -7 -76 41 -52 50 28 11 17 33 -15 29 -16 -2 -32 -6 -35 -8 -2 -3 -13 -1
-23 4 -12 7 -20 7 -24 0 -3 -5 -14 -10 -23 -10 -12 0 -13 3 -5 8 7 4 -14 8
-46 8 -45 0 -58 -3 -54 -13 6 -15 33 -18 33 -3 0 5 7 7 15 4 12 -5 11 -9 -6
-23 -19 -15 -20 -18 -5 -30 14 -12 16 -12 11 2 -8 20 12 32 31 16 12 -10 13
-9 8 5 -5 12 0 16 17 17 13 1 41 3 62 5 28 2 37 -1 37 -12 0 -19 12 -31 72
-71 42 -28 51 -31 83 -22 19 6 35 14 35 19 0 6 7 10 15 10 8 0 15 -7 15 -15 0
-24 30 -17 40 9 5 13 16 29 26 34 12 7 14 15 8 33 -11 33 -6 51 19 71 19 15
20 18 5 18 -20 0 -24 15 -8 25 6 4 10 46 9 103 -2 76 -6 100 -18 109 -14 10
-14 13 2 31 10 11 17 29 16 39 -2 10 5 30 14 45 10 14 32 77 48 140 40 148 40
148 48 147 3 0 21 -18 39 -39 l32 -38 -10 -158 c-5 -88 -13 -196 -16 -241 l-7
-82 33 4 c19 3 38 1 44 -4 6 -5 23 -7 38 -4 30 6 32 11 48 178 6 61 13 129 16
152 l5 41 40 -43 c23 -25 49 -47 60 -50 11 -4 16 -11 13 -17 -4 -6 -3 -8 3 -5
5 3 27 2 49 -3 22 -5 55 -5 77 0 34 7 38 6 31 -8 -17 -38 -15 -120 5 -199 12
-45 21 -109 21 -142 0 -36 4 -61 10 -61 6 0 10 6 9 13 -3 19 12 67 22 67 5 0
8 6 7 13 -2 7 9 12 29 12 18 1 42 10 55 22 13 12 43 32 68 45 39 20 59 23 155
23 122 -1 221 -25 211 -51 -3 -8 0 -14 7 -14 6 0 -1 -12 -16 -26 -28 -26 -31
-48 -4 -25 8 6 21 9 30 6 12 -5 16 13 23 117 10 142 8 172 -12 212 -17 35 -17
39 -2 30 7 -4 8 -3 4 5 -4 6 -11 9 -15 6 -5 -2 -18 6 -30 19 l-22 23 39 7 c22
3 63 21 91 40 29 20 57 34 64 32 7 -1 8 -1 4 2 -4 2 45 58 110 123 65 66 144
158 177 207 32 48 62 87 66 87 5 0 12 4 17 9 5 5 3 6 -4 2 -19 -11 -16 0 12
45 15 23 30 37 37 33 6 -4 8 -3 4 4 -8 13 53 114 65 106 5 -3 6 3 2 12 -4 12
-3 15 5 10 8 -4 10 -2 6 7 -3 8 1 30 9 48 13 32 14 22 21 -136 25 -599 54
-940 84 -990 7 -11 8 -17 10 -53 1 -12 9 -25 17 -28 17 -7 51 16 37 25 -11 8
-35 102 -27 109 3 3 5 -2 5 -12 0 -10 5 -14 12 -10 7 5 8 3 3 -6 -5 -8 -1 -19
11 -28 19 -14 18 -15 -1 -8 -15 6 -17 4 -8 -5 11 -11 33 -5 33 10 0 4 -16 26
-35 48 -55 65 -67 149 -90 663 -8 184 -20 391 -25 460 -27 333 -109 828 -205
1236 -45 192 -55 312 -39 474 14 149 34 230 80 327 49 102 119 191 318 403
304 324 475 538 567 710 46 87 224 335 282 395 l58 60 20 -24 c10 -13 19 -35
19 -50 -1 -56 -30 -162 -65 -232 -54 -108 -247 -427 -331 -550 -109 -157 -140
-236 -118 -293 10 -26 24 -18 24 13 0 28 2 29 34 24 68 -11 162 53 345 236
100 100 253 278 402 467 138 175 186 224 220 224 35 0 44 -27 36 -106 -6 -62
-44 -141 -126 -264 -92 -139 -164 -223 -382 -450 -193 -202 -259 -278 -259
-303 0 -6 11 0 25 13 22 21 27 22 42 8 10 -8 45 -25 77 -38 33 -13 79 -42 103
-65 37 -36 43 -47 43 -83 0 -39 -55 -202 -95 -283 -54 -109 -136 -198 -222
-243 -40 -20 -49 -20 -33 -1 7 8 19 15 27 15 8 0 11 5 8 10 -6 10 1 14 48 24
25 6 30 26 6 26 -6 0 -7 -5 -3 -11 5 -8 -3 -10 -24 -7 -17 2 -30 1 -29 -3 1
-3 -11 -18 -26 -33 -15 -14 -25 -31 -22 -36 10 -17 -80 -49 -122 -45 -31 4
-34 3 -13 -4 24 -9 24 -9 -6 -10 -75 -2 -63 53 36 164 79 89 161 226 199 334
17 47 29 87 26 89 -4 4 -8 -4 -86 -156 -58 -113 -104 -176 -144 -196 -35 -17
-50 -9 -69 38 -10 25 -13 27 -19 13 -3 -9 -2 -17 3 -17 4 0 7 -29 5 -65 -1
-36 1 -62 6 -59 5 3 9 12 9 20 0 8 7 14 16 14 8 0 12 5 9 10 -4 6 -11 8 -16 5
-5 -4 -9 -1 -9 5 0 7 7 9 16 6 8 -3 13 -2 9 3 -3 5 3 8 12 6 10 -1 27 5 38 14
11 9 -6 -14 -37 -50 -31 -36 -62 -78 -69 -92 -7 -15 -16 -24 -21 -21 -5 3 -4
11 2 19 24 29 -22 78 -47 50 -4 -4 -3 -5 3 -2 7 4 14 -2 17 -14 3 -11 2 -19
-1 -17 -44 22 -90 40 -117 45 -16 2 -17 1 -5 -7 13 -8 13 -10 -1 -10 -25 0
-36 20 -40 73 -3 26 -3 47 -2 47 1 0 13 -4 27 -10 17 -6 26 -6 26 0 0 6 -8 10
-17 10 -9 0 -24 7 -33 15 -16 14 -17 10 -17 -59 -1 -60 2 -73 13 -69 8 3 14 0
14 -6 0 -6 -6 -11 -14 -11 -8 0 -17 -7 -20 -16 -3 -9 -3 -14 1 -12 65 33 86
38 121 28 44 -11 88 -53 97 -92 4 -15 13 -32 21 -39 8 -6 14 -19 14 -28 0 -14
2 -14 10 -1 6 10 9 6 8 -16 -2 -62 38 -93 102 -81 27 6 28 5 21 -16 -5 -12
-14 -21 -20 -20 -6 2 -8 -4 -5 -11 10 -25 -77 -177 -134 -235 -30 -31 -61 -69
-69 -85 -25 -48 -43 -106 -33 -106 6 0 10 3 10 8 0 4 9 18 20 32 11 14 19 19
18 11 -2 -7 4 -16 12 -18 10 -3 11 -2 4 4 -12 8 -12 48 -1 60 4 3 7 -4 7 -17
0 -30 63 -242 106 -355 49 -128 131 -315 254 -580 59 -126 113 -246 120 -265
7 -19 26 -61 42 -93 16 -32 26 -63 22 -69 -4 -6 -3 -8 4 -5 6 4 23 -24 42 -70
29 -71 45 -108 84 -198 72 -163 131 -364 150 -509 8 -59 16 -109 18 -111 2 -1
20 0 41 3 31 3 37 8 37 28 0 15 -6 24 -15 24 -18 0 -20 -26 -2 -33 7 -4 6 -6
-4 -6 -12 -1 -19 10 -23 37 -4 20 -11 66 -17 102 -9 54 -37 177 -54 240 -6 21
45 45 58 27 6 -8 7 -7 4 5 -3 9 0 21 7 27 11 9 14 -3 15 -59 1 -39 5 -81 10
-93 5 -12 14 -84 22 -160 12 -125 14 -137 32 -137 19 0 20 5 14 88 -4 48 -15
133 -26 187 -10 55 -21 123 -25 150 l-6 50 41 20 c54 25 82 62 74 95 -3 14
-10 74 -16 134 -5 59 -14 116 -19 127 -9 15 -3 23 33 48 65 44 106 96 148 186
134 286 95 503 -161 910 -35 55 -97 170 -138 255 -41 85 -90 179 -110 210 -50
78 -59 103 -87 247 -36 183 -34 230 11 297 84 128 79 220 -20 315 -20 19 -36
44 -36 55 -1 37 -37 102 -70 126 -18 13 -62 35 -98 50 -36 15 -70 34 -76 42
-8 13 32 59 202 234 225 234 295 316 397 473 91 139 117 200 123 287 4 63 2
74 -17 93 -11 11 -29 21 -39 21 -49 0 -133 -84 -310 -309 -78 -99 -320 -381
-327 -381 -2 0 1 15 6 33 6 17 9 109 7 202 l-2 170 52 105 c59 119 76 187 70
271 l-4 59 102 0 103 0 5 43 c4 38 57 1618 56 1695 l0 32 -252 0 -253 0 -34
78 c-18 42 -66 154 -106 249 -130 306 -250 524 -467 852 -110 165 -180 251
-295 362 -194 187 -492 375 -695 439 -155 49 -312 61 -433 34 -135 -31 -138
-31 -242 22 l-95 49 -151 2 c-99 1 -180 -3 -232 -12z m-426 -228 c-26 -24 -97
-74 -159 -112 -151 -91 -237 -162 -345 -280 -92 -102 -138 -146 -143 -140 -2
2 20 36 50 76 121 165 250 277 452 389 61 34 127 73 146 86 51 35 51 29 -1
-19z m-824 -2054 c50 -26 96 -75 124 -130 29 -58 45 -173 37 -256 l-8 -67 -41
0 c-23 0 -65 3 -94 6 l-51 7 -4 108 c-3 123 -20 158 -77 170 -137 28 -267
-177 -184 -290 25 -33 78 -63 173 -97 165 -58 240 -115 285 -216 52 -116 34
-275 -46 -400 -73 -113 -177 -173 -297 -171 -196 5 -272 93 -272 315 l0 98 98
0 97 0 0 -94 c0 -78 3 -97 19 -115 44 -49 141 -9 194 79 30 50 33 61 30 121
-6 116 -52 159 -258 245 -196 82 -257 165 -248 343 7 162 122 311 278 362 14
5 66 7 115 6 68 -3 100 -8 130 -24z m3220 8 c51 -23 111 -89 142 -157 72 -159
103 -398 110 -871 l5 -343 -111 0 -111 0 0 220 0 220 -154 0 -153 0 -7 -37
c-4 -21 -9 -121 -13 -222 l-6 -184 -66 7 c-36 3 -84 6 -105 6 l-39 0 7 193
c25 704 127 1089 311 1173 44 19 142 17 190 -5z m-883 -19 c148 -45 239 -115
295 -229 35 -70 38 -84 41 -179 4 -84 0 -116 -17 -172 -39 -130 -126 -221
-251 -264 -52 -18 -87 -23 -172 -23 l-108 0 0 -244 0 -244 -72 6 c-40 4 -88 9
-105 13 l-33 7 0 673 c0 632 1 673 18 678 9 3 89 3 177 2 125 -3 175 -8 227
-24z m-1399 -22 c-1 -19 -5 -64 -8 -100 l-6 -65 -185 3 -184 3 0 -171 0 -170
150 0 150 0 0 -28 c0 -16 -3 -64 -7 -107 l-6 -78 -144 6 c-107 4 -145 3 -148
-6 -2 -7 -6 -103 -8 -214 l-5 -203 194 0 194 0 0 -44 c0 -24 -3 -64 -6 -90
l-7 -46 -293 0 -294 0 0 53 c-1 127 22 1273 26 1285 3 10 67 12 296 10 l293
-3 -2 -35z m429 -200 c54 -129 119 -287 145 -350 25 -63 49 -118 52 -122 4 -4
5 152 2 347 l-3 355 105 0 105 0 6 -31 c3 -17 6 -319 6 -670 l0 -639 -93 0
-94 0 -93 238 c-51 130 -123 315 -160 409 -36 95 -68 175 -71 177 -2 2 -4
-180 -4 -406 l0 -410 -100 0 -100 0 -3 672 -2 671 102 -3 103 -3 97 -235z
m2437 -432 c-3 -370 -6 -674 -7 -675 -1 -2 -45 -3 -97 -3 l-95 0 0 518 c0 284
3 588 7 675 l6 157 96 0 96 0 -6 -672z m-3580 -909 c19 1 38 -4 42 -11 7 -10
9 -10 9 0 0 8 18 12 55 12 30 0 55 -4 55 -9 0 -5 3 -17 7 -27 4 -12 3 -15 -5
-10 -8 4 -10 2 -6 -7 3 -8 -2 -17 -12 -21 -12 -5 -15 -2 -10 9 3 9 -3 24 -14
35 -28 28 -35 25 -15 -6 16 -25 16 -27 0 -43 -15 -15 -18 -14 -41 12 -29 34
-32 26 -4 -13 14 -20 27 -27 41 -25 18 4 19 2 7 -13 -12 -15 -11 -16 5 -3 13
11 15 17 6 28 -10 11 -7 13 19 8 53 -9 70 -19 100 -61 17 -23 50 -57 74 -77
45 -37 98 -58 98 -38 0 6 5 11 11 11 5 0 8 -4 5 -9 -4 -5 0 -12 6 -14 7 -3 3
-6 -9 -6 -12 -1 -25 -5 -28 -11 -3 -5 0 -8 7 -6 42 13 69 16 63 6 -3 -5 -1
-10 4 -10 14 0 14 20 1 40 -6 10 -10 11 -10 3 0 -7 -5 -13 -11 -13 -6 0 -8 7
-5 16 5 14 1 16 -21 11 -30 -6 -38 -1 -115 65 -49 42 -138 151 -138 169 0 5
63 9 140 9 139 0 140 0 140 -22 0 -13 9 -47 20 -76 11 -29 20 -58 20 -65 -1
-6 -10 10 -20 38 -11 27 -31 60 -45 73 -15 13 -23 27 -19 31 4 3 9 0 11 -6 7
-18 23 -16 23 3 0 13 -18 15 -130 13 -109 -2 -128 -4 -118 -16 9 -11 13 -12
20 -1 5 8 6 1 3 -17 -5 -25 -4 -27 5 -12 9 14 26 17 95 17 47 0 85 -3 85 -7 0
-5 -39 -8 -87 -7 l-88 1 85 -6 85 -6 -2 -45 c-1 -39 -1 -41 7 -15 4 17 8 24 9
16 0 -8 3 -12 6 -9 3 3 1 17 -4 32 -7 17 -7 26 -1 26 6 0 10 -8 10 -17 0 -14
2 -15 9 -5 5 9 15 -12 29 -65 29 -110 74 -334 69 -340 -11 -10 -265 104 -302
136 -11 10 -41 30 -67 45 -68 38 -162 119 -187 159 -26 42 -43 165 -20 152 7
-5 29 -8 48 -6z m2955 -11 c-6 -10 -4 -11 7 0 7 6 20 12 28 11 11 0 10 -3 -4
-9 -11 -5 -15 -9 -8 -9 17 -1 -25 -119 -121 -341 -86 -197 -87 -199 -305 -392
-350 -308 -517 -387 -729 -344 -137 28 -562 183 -562 206 0 8 -151 110 -164
110 -4 0 -4 -4 -1 -10 8 -12 -5 -13 -25 0 -12 8 -12 10 3 16 14 5 9 12 -28 40
-130 100 -214 301 -218 524 -2 86 1 101 25 148 27 52 26 72 -2 30 -15 -25 -17
-29 -19 -55 -1 -15 -3 -16 -10 -3 -6 8 -8 17 -5 21 7 13 -17 56 -32 56 -17 0
-19 -14 -2 -19 11 -4 19 -32 19 -77 1 -18 3 -21 10 -10 7 9 8 2 4 -21 -4 -19
-2 -80 4 -135 7 -69 7 -103 -1 -112 -5 -7 -8 -29 -6 -48 2 -19 0 -35 -5 -35
-4 0 -5 -5 -1 -11 4 -8 9 -7 16 2 6 9 7 -2 4 -31 -3 -25 -3 -39 0 -32 5 10 9
10 20 1 11 -9 14 -8 14 3 0 8 -4 18 -8 24 -17 19 -35 93 -27 111 6 14 10 9 16
-24 4 -23 13 -52 20 -65 7 -12 13 -39 15 -60 l3 -37 -20 20 c-11 11 -24 18
-27 14 -4 -4 0 -12 9 -18 9 -7 19 -23 24 -36 l7 -23 12 22 c12 24 28 29 34 10
2 -6 -2 -9 -8 -8 -7 2 -15 -4 -17 -12 -4 -13 -3 -13 6 0 9 13 11 12 11 -6 0
-16 6 -21 23 -20 18 1 22 -4 22 -26 1 -18 -4 -28 -13 -28 -12 0 -12 -3 -2 -15
7 -8 18 -15 25 -15 7 0 20 -10 29 -22 9 -13 14 -17 11 -11 -4 8 -1 11 9 7 9
-3 14 -9 11 -13 -7 -13 61 -40 86 -34 19 4 21 3 9 -6 -13 -10 -13 -11 0 -12 8
-1 22 -1 30 0 13 2 13 1 0 -10 -13 -9 -13 -10 2 -6 9 3 22 0 28 -8 6 -7 24
-18 41 -25 16 -7 28 -14 26 -17 -5 -4 -196 81 -244 109 -18 11 -33 24 -33 30
0 5 -4 7 -8 4 -11 -6 -60 45 -94 99 -53 84 -72 133 -89 235 -17 98 -31 354
-21 392 4 16 71 18 1104 18 881 0 1098 -2 1092 -12z m-1939 -814 c50 -28 247
-113 380 -164 269 -102 439 -150 536 -150 40 0 49 -3 49 -17 1 -54 22 -169 39
-219 12 -32 19 -59 17 -61 -6 -6 -46 108 -46 130 0 18 -2 20 -11 7 -9 -12 -10
-10 -6 8 3 14 -1 31 -11 43 -9 11 -18 30 -18 42 -1 12 -2 30 -3 39 -1 12 -10
16 -31 16 -27 -1 -29 -3 -17 -17 20 -22 52 -85 81 -156 13 -33 54 -125 90
-204 95 -206 107 -255 86 -333 -20 -70 -70 -89 -115 -44 -18 18 -25 21 -29 10
-3 -8 -2 -21 1 -31 4 -11 3 -14 -5 -9 -7 4 -12 5 -12 2 0 -14 20 -14 33 -1 13
13 16 13 21 0 3 -8 0 -14 -7 -12 -7 1 -11 -6 -9 -15 4 -27 -12 -22 -35 11 -18
24 -20 31 -9 47 22 33 39 113 33 161 -7 65 -43 97 -128 111 -51 9 -70 18 -91
42 -16 17 -28 38 -28 48 0 42 -193 314 -284 400 -120 114 -237 125 -457 44
-43 -17 -81 -27 -83 -23 -2 3 -11 30 -21 60 -15 46 -16 61 -5 105 6 28 10 81
8 118 l-3 67 25 -16 c14 -10 43 -27 65 -39z m-925 -273 c0 -28 -193 -84 -380
-111 -74 -10 -182 -30 -240 -44 -107 -26 -170 -33 -170 -18 0 5 12 14 26 21
44 20 282 70 389 81 109 12 264 43 323 65 45 17 52 17 52 6z m-854 -174 c1
-30 17 -97 37 -157 36 -109 58 -207 77 -345 6 -44 42 -209 80 -366 65 -272
112 -416 182 -552 18 -36 17 -64 -3 -52 -5 3 -6 -1 -3 -10 6 -14 8 -14 18 1
11 15 15 12 34 -21 12 -20 20 -41 16 -46 -3 -5 0 -8 8 -7 7 2 12 -5 12 -14 -1
-10 2 -16 6 -13 12 8 31 -21 24 -38 -3 -8 -1 -18 5 -22 7 -3 8 0 5 9 -11 29 4
17 55 -45 48 -57 65 -89 39 -73 -7 4 -8 3 -4 -4 4 -6 13 -9 21 -5 10 3 15 -1
15 -12 0 -9 -3 -14 -7 -12 -5 3 -6 -29 -5 -71 2 -43 1 -119 -3 -170 -6 -82 -9
-91 -21 -75 -17 22 -18 37 -2 27 7 -4 8 -3 4 5 -4 6 -11 9 -15 7 -8 -5 -70 53
-71 67 0 4 0 13 0 20 0 8 -3 7 -10 -3 -7 -12 -13 -11 -34 9 -21 20 -24 27 -14
40 7 9 8 13 3 8 -4 -4 -18 1 -29 10 -21 18 -21 18 -2 -4 30 -35 3 -27 -30 9
-16 18 -22 27 -12 20 11 -9 18 -10 23 -2 4 6 1 9 -6 8 -7 -2 -13 2 -14 9 0 6
-4 15 -9 20 -5 4 -6 3 -2 -4 10 -19 -14 -26 -32 -10 -9 8 -35 24 -57 36 -22
12 -32 20 -22 17 11 -4 16 -2 12 5 -4 6 -13 8 -21 5 -26 -10 -250 87 -239 104
3 5 0 12 -6 16 -8 4 -9 3 -5 -4 12 -20 -7 -13 -39 13 -16 13 -25 24 -18 25 6
0 15 -4 18 -10 3 -5 11 -10 18 -10 6 0 0 8 -13 17 -14 9 -27 19 -30 22 -3 3
-14 13 -25 21 -15 11 -14 7 4 -13 14 -15 20 -27 15 -27 -13 0 -86 75 -79 81 2
3 -12 21 -33 40 l-37 34 29 -32 c50 -55 12 -37 -40 20 -81 86 -122 140 -148
197 -34 73 -34 122 0 149 26 20 26 20 77 1 28 -11 53 -18 55 -15 10 10 -67 45
-100 45 -86 0 -105 -112 -37 -226 43 -74 262 -296 348 -354 36 -24 117 -66
180 -93 64 -28 127 -57 141 -66 47 -29 175 -139 231 -197 91 -97 88 -87 71
-249 l-14 -140 -192 1 c-177 1 -198 3 -291 28 -115 32 -129 39 -169 75 -25 23
-27 24 -17 4 6 -12 23 -30 38 -41 32 -22 155 -77 196 -87 28 -7 38 -25 13 -25
-24 0 -185 -68 -254 -106 -70 -39 -229 -169 -260 -212 l-20 -27 -124 129
c-163 170 -212 243 -238 355 -24 102 -12 170 104 570 101 349 155 694 156 986
1 171 15 263 64 410 75 223 151 317 331 405 44 22 82 40 85 40 3 0 6 -24 6
-53z m2817 -5 c0 -30 3 -37 11 -30 13 12 16 49 4 42 -4 -3 -8 1 -8 10 0 11 15
7 64 -17 64 -32 64 -32 75 -87 28 -144 43 -325 48 -600 3 -162 2 -291 -3 -287
-5 4 -8 22 -9 39 0 19 -6 33 -15 36 -13 5 -13 3 -1 -12 8 -9 11 -19 9 -22 -3
-3 -16 12 -29 33 -12 21 -54 70 -93 108 -41 41 -71 79 -71 91 -1 15 4 20 14
16 11 -4 13 -1 8 13 -6 14 -5 16 7 6 18 -15 86 15 86 38 0 9 7 24 14 34 29 37
1 165 -60 280 -14 26 -23 54 -20 62 3 8 0 14 -7 12 -7 -1 -12 9 -12 25 1 14
-3 25 -6 22 -4 -2 -11 1 -15 7 -3 6 -1 14 5 18 8 5 8 23 2 62 -15 86 -19 161
-8 150 5 -5 10 -28 10 -49z m2128 -362 c20 -67 -10 -141 -105 -253 l-40 -48
-43 48 c-45 52 -58 48 -19 -6 36 -48 29 -65 -32 -71 -27 -3 -48 -2 -46 2 2 3
0 9 -6 13 -6 3 -13 -1 -16 -10 -4 -8 -11 -14 -18 -13 -6 1 -23 -6 -39 -16 -21
-15 -25 -21 -16 -32 6 -8 16 -14 22 -14 8 0 7 4 0 11 -23 23 15 42 90 46 71 4
102 16 90 36 -4 6 -1 7 6 3 15 -10 -11 -53 -29 -48 -6 1 -9 -2 -6 -7 10 -16
-92 -99 -142 -115 -26 -8 -89 -23 -141 -32 -90 -17 -94 -17 -107 0 -20 28 -7
43 59 75 34 16 82 38 107 50 64 30 154 105 188 155 23 34 116 250 146 339 5
16 12 11 46 -28 21 -25 45 -63 51 -85z m-2392 -29 c-35 -28 -19 -35 41 -17
119 35 178 -18 149 -137 -9 -41 -23 -63 -66 -105 l-54 -54 -82 7 c-45 4 -83 8
-84 9 -1 1 4 22 11 47 16 52 66 144 95 176 16 17 17 22 6 27 -17 6 -48 -21
-40 -34 3 -5 -4 -26 -15 -47 -12 -21 -19 -31 -16 -22 2 10 10 46 17 80 6 35
19 73 28 83 9 11 10 16 4 12 -9 -5 -13 0 -13 14 l0 21 22 -20 21 -20 -24 -20z
m2313 -308 c-2 -36 3 -105 12 -152 23 -124 36 -244 36 -336 0 -44 9 -150 19
-235 11 -85 23 -184 27 -220 5 -47 9 -59 15 -45 11 28 10 151 -2 205 -5 25
-13 124 -19 220 -5 96 -12 184 -16 195 -5 13 -4 17 3 10 6 -5 27 -50 48 -100
55 -131 74 -166 213 -399 69 -116 142 -247 163 -291 86 -183 102 -353 50 -515
-35 -108 -93 -209 -156 -270 -41 -40 -51 -45 -96 -47 -49 -1 -50 -1 -33 18 9
10 42 69 73 131 60 120 81 141 82 86 0 -31 1 -31 11 -11 8 17 8 26 -2 38 -30
36 -60 6 -125 -124 -62 -124 -124 -191 -212 -226 -36 -14 -67 -25 -68 -23 -5
5 -178 364 -245 508 l-63 135 26 105 c20 78 47 145 105 260 117 230 142 321
142 510 0 150 -25 206 -72 164 -22 -21 -15 -33 8 -14 13 12 17 11 25 -1 29
-45 0 -309 -48 -444 -14 -38 -54 -124 -88 -190 -58 -110 -104 -225 -120 -299
-6 -29 -7 -29 -30 25 -13 30 -38 92 -56 139 -18 47 -52 130 -77 184 -48 106
-91 240 -120 368 l-16 78 38 39 c22 22 43 38 46 36 4 -3 7 1 7 8 -1 6 17 49
40 94 22 46 46 97 53 115 11 30 13 31 20 13 6 -15 8 -10 7 18 l-2 39 72 18
c39 10 89 28 110 39 39 19 203 183 203 202 0 5 3 9 8 9 4 0 5 -30 4 -67z
m-2018 -124 c178 -187 186 -251 90 -739 -55 -279 -156 -589 -275 -839 -37 -80
-75 -171 -83 -201 -14 -54 -14 -55 -25 -27 -14 36 -14 37 3 31 10 -4 21 27 45
120 35 140 55 194 166 446 108 243 106 237 103 482 -2 115 -6 208 -9 208 -4 0
-10 -10 -13 -22 -4 -13 -13 -48 -22 -78 -8 -30 -19 -122 -23 -205 -7 -133 -11
-156 -34 -201 -34 -68 -92 -114 -143 -114 -88 0 -172 86 -260 265 -77 158 -98
248 -91 400 5 134 24 199 103 357 41 81 42 87 24 93 -28 9 -14 38 16 31 16 -4
31 3 57 28 28 26 46 35 89 40 32 4 69 17 89 31 l34 23 39 -21 c21 -12 75 -60
120 -108z m-1558 -79 c17 0 44 -33 44 -55 0 -2 -31 -8 -70 -15 -80 -14 -180
-2 -253 29 -37 16 -45 23 -40 40 4 16 9 19 23 11 35 -19 170 -11 170 9 0 5 23
2 52 -5 29 -8 62 -14 74 -14z m2294 -1030 c0 -37 -7 -48 -87 -131 -47 -49
-113 -107 -145 -129 -126 -84 -380 -193 -513 -220 -82 -16 -152 -49 -164 -78
-16 -33 -15 -33 27 -17 20 7 97 30 171 50 325 89 501 178 660 335 77 77 92 72
37 -14 -37 -58 -86 -101 -191 -169 -136 -87 -275 -143 -510 -207 -156 -42
-188 -55 -224 -94 -27 -28 -41 -33 -41 -13 0 6 22 61 49 121 35 79 54 110 67
112 50 5 207 45 269 68 114 44 306 143 377 196 65 49 174 164 197 208 17 31
21 28 21 -18z m-1399 -554 c35 -13 102 -31 149 -41 146 -29 159 -33 175 -65
17 -33 14 -36 -18 -18 -12 6 -80 26 -152 43 -132 33 -226 70 -233 93 -5 17 7
15 79 -12z m1099 -47 c0 -24 -26 -58 -98 -130 -202 -200 -292 -295 -292 -306
0 -6 -6 -14 -12 -16 -7 -3 -8 -6 -3 -6 6 0 44 25 85 56 66 49 322 222 343 231
14 7 -6 -33 -35 -70 -36 -47 -25 -48 27 -6 l40 33 -43 -52 c-82 -100 -231
-231 -298 -264 -59 -30 -69 -31 -127 -24 -34 4 -90 7 -124 6 -56 -1 -62 0 -56
16 3 10 18 32 34 48 15 17 42 67 59 112 33 85 91 184 129 218 41 36 304 164
339 165 17 0 32 -5 32 -11z m-2730 -68 c0 -35 -25 -48 -107 -54 -133 -11 -261
-56 -419 -148 -105 -62 -169 -120 -234 -215 -61 -88 -62 -99 -26 -199 17 -46
20 -65 11 -65 -20 0 -33 22 -45 74 -6 26 -26 100 -45 163 -33 108 -45 196 -27
207 4 2 13 -24 20 -59 6 -34 16 -75 22 -90 l10 -27 44 59 c84 114 185 191 351
269 122 57 212 82 331 93 54 4 102 9 107 10 4 0 7 -8 7 -18z m2400 -7 c-14
-15 -50 -53 -81 -83 -61 -62 -114 -149 -154 -255 -14 -39 -27 -72 -29 -74 -2
-1 -12 23 -23 55 -26 79 -18 214 15 261 41 57 162 112 267 120 l29 3 -24 -27z
m-633 -135 c77 -33 223 -158 223 -191 0 -4 5 -8 10 -8 34 0 -79 143 -165 208
-16 13 -2 4 33 -20 91 -63 113 -73 122 -58 15 25 79 -118 104 -231 6 -26 4
-27 -57 -33 -36 -4 -99 -22 -147 -43 -117 -48 -160 -57 -199 -41 l-32 13 27
32 c15 18 30 31 34 28 16 -10 90 -22 90 -15 0 4 -22 16 -49 26 -69 25 -91 44
-98 88 -6 39 -6 39 23 32 95 -23 94 -24 28 45 -70 72 -84 96 -84 136 1 65 38
74 137 32z m2896 -149 c5 -88 3 -107 -10 -122 -21 -24 -39 -23 -39 2 0 11 3
20 7 20 14 0 19 33 7 48 -11 13 -10 15 2 10 13 -5 15 1 12 28 -2 19 -6 34 -9
34 -2 0 -53 -25 -112 -55 -59 -30 -111 -55 -114 -55 -4 0 -7 11 -7 24 0 16 7
26 23 29 12 4 31 13 42 22 16 13 17 16 3 11 -10 -3 -20 -1 -23 4 -3 5 -13 7
-23 4 -14 -5 -14 -4 -3 4 8 6 24 8 35 5 37 -10 70 -6 129 17 57 21 58 23 57
58 -3 51 0 60 9 37 5 -11 11 -67 14 -125z m-2795 -395 c-1 -58 -2 -105 0 -105
1 0 21 14 44 30 64 47 136 64 263 65 96 0 118 -4 169 -25 65 -28 89 -56 40
-48 -16 3 -58 13 -94 23 -48 13 -87 16 -150 12 -100 -6 -155 -24 -228 -74 -67
-46 -72 -40 -72 87 0 101 6 140 22 140 6 0 8 -41 6 -105z"/>
<path d="M5031 6484 c-45 -57 -89 -230 -111 -434 -6 -58 -13 -115 -16 -127
l-4 -23 147 0 148 0 -7 133 c-9 141 -32 329 -48 388 -13 47 -46 89 -70 89 -10
0 -28 -12 -39 -26z"/>
<path d="M4097 6442 l-27 -3 2 -242 3 -242 75 1 c129 2 225 70 251 177 30 125
-27 244 -136 287 -36 14 -129 26 -168 22z"/>
<path d="M4430 4629 c0 -5 6 -7 13 -3 8 5 9 4 2 -3 -19 -19 -172 -63 -221 -64
-29 0 -42 -3 -31 -7 9 -4 -59 -7 -152 -7 -158 0 -171 2 -198 21 -15 12 -27 29
-27 38 3 25 -4 19 -25 -22 -16 -32 -18 -43 -8 -62 16 -31 37 -38 30 -9 -5 19
-4 20 15 10 12 -6 71 -11 140 -11 114 0 157 6 435 62 61 12 78 28 57 53 -14
17 -30 20 -30 4z"/>
<path d="M5257 3876 c-31 -7 -63 -18 -70 -25 -10 -11 -8 -12 8 -8 11 3 52 9
91 13 87 8 129 -4 173 -50 37 -38 56 -81 131 -303 63 -186 62 -196 -13 -201
-33 -2 -59 4 -94 21 -58 30 -72 45 -111 122 -17 33 -40 74 -51 90 -12 17 -21
35 -21 40 0 6 12 -9 26 -33 14 -24 28 -41 30 -39 3 2 -10 28 -28 58 l-33 53
-3 -31 c-2 -18 6 -50 18 -73 l21 -41 -49 38 c-55 42 -61 57 -10 23 31 -20 30
-19 -6 14 -39 36 -70 50 -46 21 7 -8 9 -15 4 -15 -4 0 5 -13 20 -29 15 -16 29
-33 29 -38 1 -4 5 -7 9 -6 11 4 55 -58 77 -108 32 -72 33 -257 2 -379 -10 -41
-21 -94 -25 -117 -3 -23 -9 -50 -13 -60 -6 -16 -5 -16 10 -5 8 8 13 20 10 29
-5 13 -3 13 16 2 24 -16 29 -31 6 -23 -8 4 -15 1 -15 -5 0 -6 8 -11 18 -11 10
0 23 -5 30 -12 16 -16 16 -14 -13 66 -23 65 -23 71 -9 105 43 99 52 143 50
247 0 57 0 104 1 104 1 0 18 -9 37 -21 49 -29 133 -36 174 -15 41 21 49 56 29
115 -142 425 -182 491 -299 497 -29 2 -79 -2 -111 -10z"/>
<path d="M2710 2761 c0 -6 -25 -7 -57 -4 -85 8 -60 -5 37 -20 l83 -13 26 -69
26 -70 -1 -530 c-1 -626 -16 -891 -70 -1183 -11 -61 -12 -87 -4 -103 8 -15 8
-29 1 -51 -6 -17 -9 -33 -7 -35 2 -2 12 20 22 49 14 43 19 49 25 33 6 -16 8
-17 8 -3 1 9 -2 24 -6 33 -5 14 -8 12 -18 -11 -19 -47 -23 -7 -8 76 8 41 16
91 18 110 2 19 9 80 16 135 6 55 12 110 13 122 2 34 14 13 19 -32 3 -37 4 -37
5 10 1 28 -2 55 -7 60 -5 6 -7 105 -4 235 4 147 9 216 15 200 5 -13 6 -44 4
-69 -5 -44 -5 -44 4 -11 7 23 7 72 -1 145 -6 64 -9 247 -7 442 1 182 0 326 -4
320 -4 -7 -8 7 -8 31 0 23 -9 67 -19 97 -11 31 -15 57 -10 60 10 7 10 8 13
-22 3 -27 16 -43 17 -22 0 8 4 6 9 -6 6 -14 9 -15 9 -5 1 9 -13 31 -30 50 -17
19 -28 29 -24 23 3 -7 1 -13 -5 -13 -6 0 -13 7 -17 16 -4 11 -14 14 -34 10
-22 -4 -27 -2 -22 9 3 8 2 15 -1 15 -3 0 -6 -4 -6 -9z"/>
<path d="M2731 758 c-2 -35 -72 -232 -113 -316 -46 -95 -63 -121 -151 -229
-32 -40 -52 -73 -45 -74 7 0 4 -4 -7 -9 -11 -5 -14 -9 -7 -9 6 -1 12 -8 12
-16 0 -8 9 -15 20 -15 11 0 20 7 20 15 0 18 16 20 23 3 4 -10 6 -10 6 -1 1 6
-3 14 -9 18 -5 3 -6 13 -3 22 4 9 2 14 -3 10 -6 -3 -16 -2 -24 4 -13 7 -12 9
2 9 12 0 15 5 11 17 -4 11 -3 14 5 9 7 -4 12 -1 12 8 0 8 5 18 12 22 7 5 9 2
6 -8 -4 -10 1 -14 22 -14 25 0 27 2 19 18 -5 10 -7 24 -3 30 4 7 3 8 -4 4 -7
-4 -12 -2 -12 3 0 6 5 11 10 11 6 0 10 6 10 13 0 8 11 24 24 37 14 12 28 35
31 51 4 16 10 29 14 29 9 0 8 -86 -1 -96 -5 -4 -8 -12 -8 -18 1 -6 9 0 20 12
15 18 17 28 10 42 -13 24 -13 43 0 35 6 -3 10 -2 10 4 0 5 -4 13 -10 16 -5 3
-10 14 -10 23 0 15 2 15 11 2 8 -12 9 -11 4 6 -4 17 -1 22 12 20 14 -1 18 7
19 39 0 22 5 51 11 64 7 19 9 10 8 -42 0 -36 2 -64 5 -61 3 3 5 27 6 52 0 26
4 58 8 72 6 20 5 22 -4 10 -10 -12 -11 -10 -6 10 3 14 6 30 7 35 0 6 5 1 10
-10 8 -18 9 -17 5 5 -3 13 2 48 10 77 9 30 13 59 11 66 -3 7 -6 5 -6 -5z"/>
<path d="M5690 319 c-63 -41 -144 -70 -220 -79 -62 -7 -63 -7 -17 -9 46 -1 47
-2 30 -19 -10 -11 -26 -22 -35 -25 -10 -4 -18 -11 -18 -16 0 -5 8 -12 18 -14
10 -3 6 -5 -10 -6 -32 -1 -32 -2 -18 34 8 20 15 26 30 22 11 -3 20 -1 20 4 0
9 -97 5 -107 -5 -4 -3 3 -6 15 -6 34 0 26 -19 -10 -24 -43 -7 -84 -2 -80 10 1
5 13 9 26 9 13 0 28 3 32 7 4 4 -16 7 -44 7 -29 -1 -52 -3 -52 -5 0 -15 39
-44 60 -44 14 0 31 -5 38 -12 9 -9 13 -7 18 5 7 19 34 23 34 6 0 -5 -4 -7 -10
-4 -5 3 -10 1 -10 -4 0 -6 15 -11 33 -12 17 0 40 -2 50 -4 21 -4 22 3 0 27 -9
10 -11 18 -5 18 6 0 17 6 25 14 15 16 80 26 85 14 1 -5 2 -20 2 -34 0 -20 -4
-25 -16 -20 -13 5 -15 2 -11 -14 3 -11 1 -18 -3 -15 -5 3 -16 2 -27 -2 -15 -6
-13 -8 12 -14 17 -3 37 -8 45 -10 9 -3 16 5 18 19 2 12 -1 22 -6 22 -5 0 -7
11 -5 25 3 13 10 23 17 22 6 -1 10 4 9 11 -2 6 2 12 7 12 14 0 12 -74 -2 -88
-9 -9 -9 -12 -1 -12 17 0 24 15 26 60 2 39 -12 58 -34 44 -5 -3 -16 2 -25 10
-11 12 -20 13 -34 6 -23 -12 -30 -13 -30 -2 0 9 2 10 65 15 40 3 96 26 65 27
-8 0 0 9 19 21 29 17 38 19 57 9 12 -7 26 -10 31 -7 5 4 10 0 10 -7 0 -7 -5
-13 -11 -13 -6 0 -20 -4 -30 -9 -16 -6 -18 -4 -13 9 3 9 2 17 -3 17 -5 0 -9
-11 -8 -25 3 -28 3 -28 27 -16 23 13 59 3 64 -18 4 -14 5 -14 6 2 1 18 21 25
21 7 0 -5 7 -10 15 -10 8 0 15 -6 15 -14 0 -8 6 -16 12 -18 9 -3 8 -12 -5 -31
-12 -19 -14 -26 -5 -25 7 2 12 -3 11 -9 -4 -17 33 -17 43 -1 16 26 12 50 -8
45 -14 -4 -18 0 -18 19 0 18 4 22 17 17 15 -6 16 -5 3 9 -13 14 -16 14 -28 -1
-12 -15 -13 -14 -8 1 3 10 2 17 -2 17 -26 -4 -31 5 -7 10 20 5 36 3 47 -7 9
-8 22 -11 27 -7 6 3 11 2 11 -3 0 -6 12 -7 33 -1 17 4 58 11 90 14 31 4 57 11
57 16 0 5 -3 9 -7 10 -30 3 -47 9 -54 20 -5 9 -11 8 -24 -4 -20 -21 -35 -22
-35 -2 0 8 -5 15 -11 15 -6 0 -9 -7 -5 -15 6 -17 -9 -21 -19 -5 -3 6 -11 10
-16 10 -6 0 -7 -5 -4 -10 7 -11 -23 -9 -43 4 -8 5 -21 1 -33 -10 -18 -16 -19
-16 -19 3 0 12 11 23 28 30 l27 11 -28 1 c-23 1 -28 -4 -33 -29 -7 -30 -28
-41 -37 -17 -3 7 -6 4 -6 -6 -1 -27 -21 -10 -21 19 0 21 -4 23 -24 18 -33 -8
-43 14 -12 26 14 5 26 12 26 15 0 12 -28 2 -70 -26z"/>
<path d="M4062 319 c-45 -8 -100 -38 -122 -64 -11 -13 -10 -14 4 -9 10 4 25
-1 35 -10 14 -12 26 -15 47 -9 16 4 35 6 42 5 6 -2 12 2 12 8 0 5 7 10 15 10
8 0 15 8 15 18 0 19 18 42 33 42 4 0 5 -4 2 -10 -3 -5 -1 -10 4 -10 6 0 11 5
11 12 0 15 15 0 15 -15 1 -7 7 -11 15 -9 8 2 23 -1 34 -6 67 -31 71 -31 94 -5
25 28 28 43 10 43 -7 0 -24 3 -37 7 -20 5 -22 3 -16 -16 5 -17 2 -21 -14 -21
-23 0 -29 25 -8 33 6 3 -4 6 -23 7 -102 6 -129 6 -168 -1z"/>
<path d="M3382 300 c-12 -5 -25 -17 -29 -26 -4 -10 -13 -14 -28 -10 -21 5 -23
1 -33 -57 -8 -50 -8 -64 4 -73 7 -6 11 -14 7 -17 -3 -4 -1 -7 6 -7 7 0 11 6 8
14 -3 8 -3 17 0 20 10 10 33 -15 33 -35 0 -16 3 -17 24 -8 25 12 47 72 62 167
6 37 4 42 -12 41 -11 0 -29 -4 -42 -9z"/>
</g>
</svg>
